# xmcd
#
# Track frame offsets:
#	150
#	22425
#	47288
#	69172
#	85224
#	108169
#	125922
#	152071
#	164392
#	195459
#	214124
#	229632
#	248538
#	260481
#
# Disc length: 3811 seconds
#
# Revision: 0
# Processed by: cddbd v1.5.1PL2 Copyright (c) Steve Scherf et al.
# Submitted via: dBpowerAMP V4.0
#
DISCID=b60ee10e
DTITLE=Washboard Chaz Blues Trio - Courtyard Blues
DYEAR=1900
DGENRE=Blues
TTITLE0=Sophisticated Mama
TTITLE1=Big Road Blues
TTITLE2=32-20
TTITLE3=Caller ID
TTITLE4=Fixing To Die Blues
TTITLE5=Utah Moon
TTITLE6=Mystery Train
TTITLE7=Mellow Chick
TTITLE8=Come On In My Kitchen
TTITLE9=All By Myself
TTITLE10=Fishing Blues
TTITLE11=Step It Up and Go
TTITLE12=She's A Rounder
TTITLE13=Bukka's Jitterbug Swing
EXTD=
EXTT0=
EXTT1=
EXTT2=
EXTT3=
EXTT4=
EXTT5=
EXTT6=
EXTT7=
EXTT8=
EXTT9=
EXTT10=
EXTT11=
EXTT12=
EXTT13=
PLAYORDER=
